# xmcd
#
# Track frame offsets:
#	150
#	13464
#	24820
#	34584
#	47262
#	56335
#	65935
#	76072
#	87066
#	97501
#	111402
#	121787
#	134798
#	146489
#	159771
#	172255
#	181840
#	192559
#
# Disc length: 2708
#
# Revision: 1
# Processed by: cddbd v1.5.1PL0 Copyright (c) Steve Scherf et al.
# Submitted via: FreeRIP 2.90 
# Normalized: r0:TSWAP
#
DISCID=e50a9212
DTITLE=Various Artist - Kings and Queens of Country (Disc1)
DYEAR=2000
DGENRE=country
TTITLE0=Kenny Rogers - Ruby, Don't Take Your Love To Town
TTITLE1=Hank Locklin - Send Me The Pillow That You Dream On
TTITLE2=Ned Miller - From A Jack To A King
TTITLE3=Johnny Cash - Folsom Prison Blues
TTITLE4=Jerry Lee Lewis - Jambalaya
TTITLE5=Charley Pride - Kiss An Angel Good Mornin'
TTITLE6=Leroy Van Dyke - Walk On By
TTITLE7=Johnny Cash - I Love You Because
TTITLE8=Freddy Fender - Before The Next Teardrop Falls
TTITLE9=Charlie Rich - Sittin' and Thinkin'
TTITLE10=Faron Young - Hello Walls
TTITLE11=Johnny Tillotson - It Keeps Right On A-hurtin'
TTITLE12=Roger Miller - Little Green Apples
TTITLE13=Jerry Lee Lewis - You Win Again
TTITLE14=Leroy Van Dyke - The Auctioneer
TTITLE15=Dave Dudley - Six Days On The Road
TTITLE16=Hank Locklin - Please Help Me I'm Falling
TTITLE17=Roger Miller - King Of The Road
EXTD=
EXTT0=
EXTT1=
EXTT2=
EXTT3=
EXTT4=
EXTT5=
EXTT6=
EXTT7=
EXTT8=
EXTT9=
EXTT10=
EXTT11=
EXTT12=
EXTT13=
EXTT14=
EXTT15=
EXTT16=
EXTT17=
PLAYORDER=
